<?xml version="1.0" encoding="UTF-8"?>
<svg id="Layer_1" data-name="Layer 1" xmlns="http://www.w3.org/2000/svg" viewBox="0 0 1024 1024">
  <defs>
    <style>
      .cls-1 {
        fill: #00139e;
      }

      .cls-2 {
        fill: #fff;
      }
    </style>
  </defs>
  <rect class="cls-2" x="0" width="1024" height="1024"/>
  <g>
    <g>
      <path class="cls-2" d="M854.34,182.16h0L549.92,9.52c-24.57-13.21-54.25-12.64-78.3,1.5l-108.35,61.27c-3.42,1.93-3.43,6.85-.02,8.8l326.8,186.39h0s-175.29,102.46-175.29,102.46c-1.56.91-3.49.92-5.06.03L178.01,180.83c-1.55-.88-3.44-.89-4.99-.01l-90.69,51.2c-24.69,14.27-39.9,40.62-39.9,69.13v438.63c0,29.09,15.62,55.95,40.91,70.34l126.78,72.13c3.37,1.92,7.56-.52,7.56-4.4v-475.1c0-3.88,4.19-6.32,7.56-4.4l229.04,130.38c35.95,20.46,80.03,20.46,115.98,0l229.04-130.38c3.37-1.92,7.56.52,7.56,4.4v475.1c0,3.88,4.19,6.31,7.56,4.4l126.78-72.13c25.29-14.39,40.91-41.24,40.91-70.34v-438.63c0-28.51-15.4-53.97-40.09-68.24l-87.67-50.76Z"/>
      <path class="cls-1" d="M854.34,182.16h0L549.92,9.52c-24.57-13.21-54.25-12.64-78.3,1.5l-108.35,61.27c-3.42,1.93-3.43,6.85-.02,8.8l326.8,186.39h0s-175.29,102.46-175.29,102.46c-1.56.91-3.49.92-5.06.03L178.01,180.83c-1.55-.88-3.44-.89-4.99-.01l-90.69,51.2c-24.69,14.27-39.9,40.62-39.9,69.13v438.63c0,29.09,15.62,55.95,40.91,70.34l126.78,72.13c3.37,1.92,7.56-.52,7.56-4.4v-475.1c0-3.88,4.19-6.32,7.56-4.4l229.04,130.38c35.95,20.46,80.03,20.46,115.98,0l229.04-130.38c3.37-1.92,7.56.52,7.56,4.4v475.1c0,3.88,4.19,6.31,7.56,4.4l126.78-72.13c25.29-14.39,40.91-41.24,40.91-70.34v-438.63c0-28.51-15.4-53.97-40.09-68.24l-87.67-50.76Z"/>
    </g>
    <path class="cls-1" d="M633.2,725.59c0-3.9-4.24-6.34-7.61-4.37l-.12.07c-36.17,18.57-73.37,46.42-113.21,45.91-38.62-.49-77.16-27.79-113.09-45.85-.08-.04-.16-.08-.24-.13h0c-3.37-1.97-7.61.46-7.61,4.37v257.26c0,1.71.86,3.33,2.29,4.26,36.9,24.11,77.81,36.66,117.92,36.85v.04c.24,0,.48-.02.72-.02.24,0,.48.02.72.02v-.04c59.49-1.62,81.8-18.75,117.44-36.96,1.69-.87,2.78-2.61,2.78-4.51v-256.91Z"/>
  </g>
</svg>