<?xml version="1.0" encoding="UTF-8" standalone="no"?>
<!DOCTYPE svg PUBLIC "-//W3C//DTD SVG 1.1//EN" "http://www.w3.org/Graphics/SVG/1.1/DTD/svg11.dtd">
<svg width="100%" height="100%" viewBox="0 0 1024 1024" version="1.1" xmlns="http://www.w3.org/2000/svg" xmlns:xlink="http://www.w3.org/1999/xlink" xml:space="preserve" xmlns:serif="http://www.serif.com/" style="fill-rule:evenodd;clip-rule:evenodd;stroke-linejoin:round;stroke-miterlimit:2;">
    <g>
        <g>
            <path d="M854.34,182.16L549.92,9.52C525.35,-3.69 495.67,-3.12 471.62,11.02L363.27,72.29C359.85,74.22 359.84,79.14 363.25,81.09L690.05,267.48L514.76,369.94C513.2,370.85 511.27,370.86 509.7,369.97L178.01,180.83C176.46,179.95 174.57,179.94 173.02,180.82L82.33,232.02C57.64,246.29 42.43,272.64 42.43,301.15L42.43,739.78C42.43,768.87 58.05,795.73 83.34,810.12L210.12,882.25C213.49,884.17 217.68,881.73 217.68,877.85L217.68,402.75C217.68,398.87 221.87,396.43 225.24,398.35L454.28,528.73C490.23,549.19 534.31,549.19 570.26,528.73L799.3,398.35C802.67,396.43 806.86,398.87 806.86,402.75L806.86,877.85C806.86,881.73 811.05,884.16 814.42,882.25L941.2,810.12C966.49,795.73 982.11,768.88 982.11,739.78L982.11,301.15C982.11,272.64 966.71,247.18 942.02,232.91L854.35,182.15L854.34,182.16Z" style="fill:white;fill-rule:nonzero;"/>
            <path d="M854.34,182.16L549.92,9.52C525.35,-3.69 495.67,-3.12 471.62,11.02L363.27,72.29C359.85,74.22 359.84,79.14 363.25,81.09L690.05,267.48L514.76,369.94C513.2,370.85 511.27,370.86 509.7,369.97L178.01,180.83C176.46,179.95 174.57,179.94 173.02,180.82L82.33,232.02C57.64,246.29 42.43,272.64 42.43,301.15L42.43,739.78C42.43,768.87 58.05,795.73 83.34,810.12L210.12,882.25C213.49,884.17 217.68,881.73 217.68,877.85L217.68,402.75C217.68,398.87 221.87,396.43 225.24,398.35L454.28,528.73C490.23,549.19 534.31,549.19 570.26,528.73L799.3,398.35C802.67,396.43 806.86,398.87 806.86,402.75L806.86,877.85C806.86,881.73 811.05,884.16 814.42,882.25L941.2,810.12C966.49,795.73 982.11,768.88 982.11,739.78L982.11,301.15C982.11,272.64 966.71,247.18 942.02,232.91L854.35,182.15L854.34,182.16Z" style="fill:white;fill-rule:nonzero;stroke:rgb(0,19,158);stroke-width:1px;"/>
        </g>
        <path d="M633.2,725.59C633.2,721.69 628.96,719.25 625.59,721.22L625.47,721.29C589.3,739.86 552.1,767.71 512.26,767.2C473.64,766.71 435.1,739.41 399.17,721.35C399.09,721.31 399.01,721.27 398.93,721.22C395.56,719.25 391.32,721.68 391.32,725.59L391.32,982.85C391.32,984.56 392.18,986.18 393.61,987.11C430.51,1011.22 471.42,1023.77 511.53,1023.96L511.53,1024C511.77,1024 512.01,1023.98 512.25,1023.98C512.49,1023.98 512.73,1024 512.97,1024L512.97,1023.96C572.46,1022.34 594.77,1005.21 630.41,987C632.1,986.13 633.19,984.39 633.19,982.49L633.19,725.58L633.2,725.59Z" style="fill:white;fill-rule:nonzero;"/>
    </g>
</svg>
